<?xml version="1.0" standalone="no"?>
<!DOCTYPE svg PUBLIC "-//W3C//DTD SVG 20010904//EN"
 "http://www.w3.org/TR/2001/REC-SVG-20010904/DTD/svg10.dtd">
<svg version="1.0" xmlns="http://www.w3.org/2000/svg"
 width="260.000000pt" height="260.000000pt" viewBox="0 0 260.000000 260.000000"
 preserveAspectRatio="xMidYMid meet">
<metadata>
Created by potrace 1.14, written by Peter Selinger 2001-2017
</metadata>
<g transform="translate(0.000000,260.000000) scale(0.100000,-0.100000)"
fill="#000000" stroke="none">
<path d="M1686 2578 c3 -5 10 -6 15 -3 13 9 11 12 -6 12 -8 0 -12 -4 -9 -9z"/>
<path d="M1736 2553 c-6 -14 -5 -15 5 -6 7 7 10 15 7 18 -3 3 -9 -2 -12 -12z"/>
<path d="M1836 2553 c-6 -14 -5 -15 5 -6 7 7 10 15 7 18 -3 3 -9 -2 -12 -12z"/>
<path d="M1537 2518 c-8 -5 -8 -8 2 -8 18 0 6 -13 -15 -16 -11 -2 -14 3 -9 14
5 13 3 14 -6 5 -17 -17 -3 -31 31 -28 29 2 30 1 15 -14 -8 -10 -12 -21 -8 -26
5 -4 2 -5 -4 -1 -7 4 -13 2 -13 -3 0 -6 -5 -11 -11 -11 -5 0 -7 5 -4 10 3 6 2
10 -4 10 -5 0 -12 -4 -15 -8 -4 -8 -42 -11 -161 -15 -32 -1 -48 -14 -37 -32 8
-13 12 -39 5 -31 -3 3 -14 1 -24 -4 -12 -7 -20 -7 -24 0 -4 7 -12 7 -18 2 -19
-14 -42 -8 -41 11 2 24 -5 21 -15 -5 -4 -12 -11 -17 -14 -11 -3 5 1 20 9 32
l16 22 20 -20 c10 -12 24 -18 30 -15 7 5 3 10 -10 15 -27 10 -29 23 -3 14 11
-3 22 -1 25 4 4 6 13 8 21 4 8 -3 15 -1 15 4 0 5 -11 10 -26 11 -14 1 -23 -2
-19 -8 3 -6 1 -10 -4 -10 -6 0 -11 5 -11 11 0 8 -5 8 -15 -1 -12 -10 -15 -10
-15 0 0 7 -8 2 -18 -11 -13 -15 -21 -19 -26 -11 -4 7 -2 12 3 12 6 0 11 5 11
10 0 6 -8 5 -20 -2 -16 -11 -17 -14 -5 -21 11 -6 12 -13 6 -25 -7 -14 -22 -17
-68 -17 -32 0 -64 5 -72 9 -9 6 -12 5 -8 -1 4 -6 -10 -10 -36 -10 -77 -1 -78
-1 -73 -27 4 -20 1 -24 -12 -20 -15 5 -15 4 1 -9 17 -14 16 -15 -3 -20 -11 -3
-23 -1 -26 4 -3 6 -10 6 -17 1 -7 -5 -38 -8 -70 -8 -34 1 -56 -3 -53 -9 2 -5
9 -9 16 -7 10 2 11 0 3 -10 -6 -7 -9 -21 -8 -30 2 -11 -3 -16 -16 -15 -10 1
-19 5 -19 9 0 4 -4 8 -10 8 -5 0 -7 -8 -4 -17 5 -14 4 -15 -4 -4 -6 8 -9 27
-7 43 2 15 0 28 -4 28 -5 0 -8 -16 -6 -35 2 -37 0 -38 -57 -37 -25 1 -27 -3
-30 -46 l-3 -47 -38 1 c-39 1 -45 -4 -25 -24 9 -9 9 -12 0 -12 -8 0 -10 -9 -6
-25 3 -14 2 -25 -3 -25 -5 0 -7 -16 -5 -36 3 -28 1 -35 -9 -31 -8 2 -13 9 -12
15 4 18 -37 36 -51 22 -8 -8 -6 -9 8 -4 13 5 17 4 12 -4 -4 -7 -2 -10 7 -6 8
3 14 -2 14 -11 0 -18 -18 -20 -36 -2 -9 7 -11 7 -8 1 4 -7 0 -15 -8 -18 -12
-4 -13 -10 -6 -24 5 -10 6 -24 1 -32 -5 -8 -7 -17 -5 -20 2 -3 -5 -6 -15 -6
-19 0 -20 11 -5 36 6 11 2 10 -12 -3 -11 -9 -23 -15 -26 -12 -4 3 -5 2 -3 -1
3 -3 1 -17 -5 -31 -8 -21 -7 -24 10 -18 11 3 27 -3 42 -16 13 -11 18 -17 10
-13 -11 5 -13 3 -8 -10 4 -11 3 -15 -4 -11 -6 4 -8 14 -5 22 5 11 2 13 -9 9
-9 -3 -13 -2 -10 4 8 13 -5 13 -25 0 -11 -7 -11 -10 -2 -10 7 0 10 -5 6 -11
-3 -6 -7 -30 -8 -53 -2 -41 -3 -41 -39 -40 -40 2 -39 3 -40 -78 0 -24 -3 -26
-16 -15 -12 9 -11 5 3 -17 10 -16 12 -25 5 -21 -9 6 -11 3 -6 -8 4 -11 1 -17
-7 -17 -8 0 -14 10 -15 23 -1 43 -4 54 -18 54 -10 0 -10 -3 0 -16 10 -12 9
-14 -3 -9 -12 4 -15 -8 -18 -70 -1 -42 -8 -82 -15 -91 -8 -10 -9 -13 0 -8 13
8 14 -66 0 -79 -11 -12 -8 -26 5 -18 7 4 8 3 4 -5 -4 -6 -12 -9 -17 -6 -5 4
-9 2 -9 -4 0 -5 8 -12 18 -14 16 -4 16 -5 -1 -6 -12 -1 -16 -6 -11 -13 4 -8 3
-10 -2 -5 -9 8 -10 12 -13 40 -1 9 -3 9 -9 -1 -6 -9 -12 -5 -20 13 -9 20 -9
24 -1 19 8 -4 9 -3 5 4 -4 7 -12 12 -17 12 -10 0 -5 -41 7 -62 5 -8 0 -7 -11
2 -13 10 -16 11 -11 2 9 -15 14 -92 6 -92 -3 0 -5 -27 -5 -60 0 -35 -4 -60
-10 -60 -7 0 -7 -3 0 -8 16 -11 12 -51 -5 -63 -13 -10 -13 -10 0 -6 22 7 22
-332 0 -359 -14 -18 -14 -18 4 -4 17 13 19 13 14 0 -3 -8 -1 -23 4 -32 5 -10
5 -18 0 -18 -5 0 -9 -7 -9 -15 0 -8 3 -15 6 -15 3 0 6 -21 6 -47 0 -42 2 -47
27 -54 16 -4 30 -3 34 2 12 20 22 7 23 -34 3 -79 6 -87 35 -107 17 -10 33 -17
37 -15 3 3 6 -8 7 -23 0 -52 2 -65 9 -59 3 4 13 1 21 -6 13 -9 14 -9 8 0 -5 9
0 12 17 11 21 -2 24 -7 23 -43 0 -32 3 -40 17 -39 9 1 14 -2 11 -7 -3 -5 9 -6
26 -3 19 4 30 2 30 -5 0 -6 5 -11 11 -11 5 0 7 5 3 11 -5 8 -1 8 14 0 25 -13
35 -14 28 -2 -7 10 43 6 52 -5 4 -4 -2 -4 -13 0 -17 6 -18 5 -7 -6 11 -11 16
-10 26 4 10 14 15 15 26 5 7 -7 10 -7 7 -2 -3 6 10 9 31 8 53 -2 52 -2 52 -12
0 -5 -10 -8 -23 -6 -17 4 -27 -3 -39 -23 l-17 -28 44 1 c47 1 68 11 41 21 -9
3 -13 10 -10 15 2 5 13 3 24 -3 10 -7 16 -16 13 -22 -4 -5 -1 -6 7 -1 11 7 9
12 -8 23 -44 29 -26 37 92 38 142 2 148 4 136 43 -9 33 0 45 35 47 11 1 25 2
32 3 8 1 11 13 8 36 -3 19 -2 36 3 36 4 1 27 3 52 4 25 2 47 4 50 5 3 1 13 1
23 0 21 -2 49 18 42 30 -3 4 2 10 10 14 8 3 15 10 15 16 0 6 -7 4 -16 -4 -8
-9 -22 -16 -29 -16 -8 0 -17 -5 -21 -12 -5 -8 -1 -9 12 -4 16 6 17 5 6 -6 -11
-11 -16 -10 -26 4 -12 17 -14 16 -25 -5 -8 -14 -10 -16 -6 -3 3 10 0 26 -7 34
-10 12 -10 14 0 8 7 -4 12 -2 12 5 0 8 5 6 13 -5 13 -18 52 -12 40 7 -3 6 -1
7 6 3 6 -4 18 -3 26 4 10 8 18 6 34 -11 11 -13 24 -19 28 -16 3 4 1 7 -5 7 -7
0 -12 8 -11 18 0 10 3 12 6 5 3 -8 11 -10 21 -5 9 4 68 7 130 7 83 0 111 3
108 12 -3 6 0 13 6 15 8 3 8 10 0 25 -12 21 -11 21 109 21 66 0 122 2 125 5 3
3 18 2 32 -2 15 -4 39 -4 54 0 16 4 30 3 34 -2 3 -6 10 -6 17 -1 7 5 33 8 58
8 31 -1 46 2 46 11 0 7 -4 13 -8 13 -4 0 -11 10 -14 21 -6 17 -9 19 -17 8 -8
-11 -8 -10 -4 4 3 10 6 21 6 23 0 2 5 4 11 4 5 0 8 -4 5 -9 -3 -4 2 -17 10
-27 15 -18 15 -18 11 4 -4 15 1 26 14 32 13 7 19 7 19 1 0 -7 8 -7 23 -2 12 4
30 7 39 6 10 -2 20 1 24 6 3 5 10 9 15 9 6 0 7 -6 3 -12 -6 -10 -5 -10 8 -1 8
7 17 11 19 8 3 -2 5 4 5 14 0 12 -5 17 -15 13 -10 -4 -12 -1 -6 8 10 16 -11 5
-41 -22 -21 -18 -21 -18 -20 6 1 14 5 28 9 32 11 11 38 14 31 3 -3 -5 -1 -9 5
-9 5 0 12 6 14 13 4 9 6 9 6 0 1 -7 6 -13 12 -13 5 0 7 5 4 10 -6 10 12 12
113 13 23 0 42 5 42 10 0 5 -8 6 -17 3 -17 -6 -17 -5 0 8 16 12 16 14 2 20 -9
3 -13 11 -9 17 5 8 3 9 -7 4 -8 -5 -10 -4 -6 0 10 11 32 16 78 16 33 0 37 3
41 29 3 16 0 32 -6 34 -6 2 -3 5 7 5 12 1 16 5 11 14 -6 9 -5 9 7 0 8 -6 24
-10 34 -8 11 2 25 4 32 4 7 1 10 18 8 47 -2 33 1 44 10 40 7 -2 18 1 24 7 8 8
11 8 11 -1 0 -6 6 -9 14 -6 12 5 14 80 14 485 0 312 -4 477 -10 473 -6 -4 -7
0 -1 12 14 29 10 159 -5 158 -29 -2 -33 -5 -27 -14 5 -8 12 -7 23 2 15 11 15
11 5 -2 -12 -16 -13 -19 -13 -50 0 -11 -4 -20 -8 -20 -5 0 -8 14 -7 30 1 17
-3 34 -8 37 -6 4 -8 -4 -5 -20 3 -14 1 -32 -3 -39 -10 -16 -5 59 6 87 7 19 7
19 -6 2 -13 -16 -15 -9 -14 63 1 86 -14 130 -34 100 -6 -8 -13 -11 -18 -7 -11
12 19 27 42 21 11 -3 5 4 -14 16 -18 11 -31 24 -27 27 3 3 12 0 20 -6 18 -15
34 5 17 22 -9 9 -10 7 -5 -8 7 -18 6 -19 -10 -6 -15 13 -20 12 -39 -9 -12 -13
-14 -18 -5 -11 15 11 17 10 15 -8 -1 -12 -5 -21 -9 -21 -4 0 -11 0 -15 0 -4 0
-8 18 -9 41 -2 23 -5 47 -8 55 -3 7 -1 16 5 19 17 11 -2 25 -35 25 -17 0 -38
6 -45 13 -11 10 -12 9 -6 -1 8 -16 -26 -13 -37 3 -5 6 -8 5 -8 -3 0 -10 -4
-10 -15 2 -12 12 -14 20 -5 36 6 11 9 21 8 21 -6 3 -43 7 -86 10 -37 3 -41 5
-37 23 6 21 6 21 -7 1 -13 -20 -56 -36 -43 -16 3 6 0 11 -7 11 -9 0 -9 3 2 10
20 13 33 12 24 -2 -4 -7 -3 -8 5 -4 15 10 3 29 -14 22 -19 -7 -25 17 -7 30 11
8 7 10 -22 9 -20 0 -36 3 -36 8 0 5 -7 4 -15 -3 -8 -7 -15 -9 -15 -4 0 11
-397 12 -413 2z m-167 -140 c0 -4 -4 -8 -9 -8 -6 0 -12 4 -15 8 -3 5 1 9 9 9
8 0 15 -4 15 -9z m960 -52 c0 -2 -7 -7 -16 -10 -8 -3 -12 -2 -9 4 6 10 25 14
25 6z m140 -420 c0 -3 -4 -8 -10 -11 -5 -3 -10 -1 -10 4 0 6 5 11 10 11 6 0
10 -2 10 -4z m17 -26 c-1 -12 -5 -16 -10 -11 -5 5 -6 14 -3 20 11 16 15 13 13
-9z m-2134 -15 c-3 -9 -8 -14 -10 -11 -3 3 -2 9 2 15 9 16 15 13 8 -4z m42
-25 c3 -6 -1 -7 -9 -4 -18 7 -21 14 -7 14 6 0 13 -4 16 -10z m2075 0 c0 -5 -2
-10 -4 -10 -3 0 -8 5 -11 10 -3 6 -1 10 4 10 6 0 11 -4 11 -10z m34 -38 c3 -5
-1 -9 -9 -9 -8 0 -12 4 -9 9 3 4 7 8 9 8 2 0 6 -4 9 -8z m-39 -111 c3 -5 2
-12 -3 -15 -5 -3 -9 1 -9 9 0 17 3 19 12 6z m42 -66 c0 -8 -4 -12 -9 -9 -5 3
-6 10 -3 15 9 13 12 11 12 -6z m-2297 -39 c0 -2 -3 -11 -6 -20 -9 -23 -23 -20
-21 4 1 11 7 20 14 20 7 0 13 -2 13 -4z m2025 -915 c-14 -14 -39 -6 -30 10 4
5 0 9 -7 9 -9 0 -9 3 2 10 8 5 11 10 7 10 -5 0 -5 5 -2 10 4 6 14 1 25 -12 16
-19 17 -25 5 -37z m-139 -73 c4 -7 3 -8 -5 -4 -6 4 -20 2 -29 -6 -15 -12 -16
-11 -3 5 16 20 27 22 37 5z m-1982 -36 c3 -5 -1 -9 -9 -9 -8 0 -12 4 -9 9 3 4
7 8 9 8 2 0 6 -4 9 -8z m49 -17 c-7 -21 -12 -19 -10 4 0 11 5 18 9 15 4 -3 5
-11 1 -19z m1678 2 c-10 -9 -11 -8 -5 6 3 10 9 15 12 12 3 -3 0 -11 -7 -18z
m52 12 c-16 -16 -4 -51 16 -44 11 4 13 3 5 -5 -15 -15 -41 -3 -39 18 1 20 13
42 23 42 3 0 1 -5 -5 -11z m-1688 -178 c-3 -6 -11 -11 -16 -11 -5 0 -4 6 3 14
14 16 24 13 13 -3z m31 -10 c-17 -18 -17 -19 1 -24 15 -4 16 -5 1 -6 -26 -2
-32 19 -12 34 26 20 30 18 10 -4z m391 -264 c2 -19 2 -19 -13 -1 -10 14 -12
14 -9 3 4 -10 0 -16 -10 -16 -17 0 -19 9 -5 23 17 17 36 12 37 -9z"/>
<path d="M2213 685 c0 -7 6 -11 14 -8 7 3 13 6 13 8 0 2 -6 5 -13 8 -8 3 -14
-1 -14 -8z"/>
<path d="M1476 2512 c-2 -4 -1 -14 5 -22 12 -21 11 -33 -3 -24 -7 4 -8 3 -4
-4 4 -6 13 -9 21 -6 12 5 12 9 0 28 -8 13 -12 26 -8 29 3 4 4 7 0 7 -3 0 -8
-4 -11 -8z"/>
<path d="M2056 2503 c-6 -14 -5 -15 5 -6 7 7 10 15 7 18 -3 3 -9 -2 -12 -12z"/>
<path d="M2076 2493 c-6 -14 -5 -15 5 -6 7 7 10 15 7 18 -3 3 -9 -2 -12 -12z"/>
<path d="M2100 2479 c0 -5 5 -7 10 -4 6 3 10 8 10 11 0 2 -4 4 -10 4 -5 0 -10
-5 -10 -11z"/>
<path d="M1530 2470 c-9 -6 -10 -10 -3 -10 6 0 15 5 18 10 8 12 4 12 -15 0z"/>
<path d="M1085 2420 c-3 -5 -2 -10 4 -10 5 0 13 5 16 10 3 6 2 10 -4 10 -5 0
-13 -4 -16 -10z"/>
<path d="M2230 2420 c-9 -6 -10 -10 -3 -10 6 0 15 5 18 10 8 12 4 12 -15 0z"/>
<path d="M993 2395 c0 -8 4 -12 9 -9 5 3 6 10 3 15 -9 13 -12 11 -12 -6z"/>
<path d="M1100 2400 c-9 -6 -10 -10 -3 -10 6 0 15 5 18 10 8 12 4 12 -15 0z"/>
<path d="M1259 2408 c-11 -42 -1 -54 26 -34 18 13 18 14 -3 25 -12 6 -22 10
-23 9z m31 -23 c0 -2 -6 -5 -13 -8 -8 -3 -14 1 -14 8 0 7 6 11 14 8 7 -3 13
-6 13 -8z"/>
<path d="M1055 2390 c-3 -6 1 -7 9 -4 18 7 21 14 7 14 -6 0 -13 -4 -16 -10z"/>
<path d="M1115 2379 c-11 -16 -1 -19 13 -3 7 8 8 14 3 14 -5 0 -13 -5 -16 -11z"/>
<path d="M2245 2380 c-3 -6 1 -7 9 -4 18 7 21 14 7 14 -6 0 -13 -4 -16 -10z"/>
<path d="M1070 2376 c0 -2 7 -7 16 -10 8 -3 12 -2 9 4 -6 10 -25 14 -25 6z"/>
<path d="M824 2335 c1 -6 12 -22 25 -36 17 -17 22 -19 18 -7 -4 11 0 21 11 27
11 7 12 11 4 11 -8 0 -10 5 -6 13 5 8 2 8 -9 -2 -9 -7 -17 -9 -17 -4 0 5 -6
10 -14 10 -7 0 -13 -5 -12 -12z m40 -17 c-3 -4 -11 -5 -19 -1 -21 7 -19 12 4
10 11 0 18 -5 15 -9z"/>
<path d="M689 2275 c-1 -3 -2 -8 -3 -12 -1 -5 -5 -14 -9 -20 -5 -7 -5 -13 0
-14 4 0 16 -2 25 -4 15 -3 16 0 6 18 -7 12 -11 25 -10 30 1 4 0 7 -3 7 -3 0
-6 -2 -6 -5z"/>
<path d="M440 2016 c0 -3 9 -10 20 -16 11 -6 20 -8 20 -6 0 3 -9 10 -20 16
-11 6 -20 8 -20 6z"/>
<path d="M336 1922 c-3 -5 1 -9 9 -9 8 0 12 4 9 9 -3 4 -7 8 -9 8 -2 0 -6 -4
-9 -8z"/>
<path d="M107 1375 c6 -11 8 -26 6 -33 -6 -17 19 -11 34 8 13 16 7 34 -8 24
-5 -3 -17 0 -26 8 -14 11 -15 11 -6 -7z"/>
<path d="M9 1003 c-13 -16 -12 -17 4 -4 9 7 17 15 17 17 0 8 -8 3 -21 -13z"/>
<path d="M37 992 c-15 -16 -15 -19 -2 -19 8 0 13 3 10 5 -3 3 0 11 6 19 17 20
5 16 -14 -5z"/>
<path d="M35 917 c1 -12 -5 -31 -14 -42 -16 -19 -15 -20 4 -3 21 17 30 54 16
62 -4 3 -7 -5 -6 -17z"/>
<path d="M30 762 c0 -5 7 -9 15 -9 8 0 12 4 9 9 -3 4 -9 8 -15 8 -5 0 -9 -4
-9 -8z"/>
<path d="M2396 762 c-3 -5 1 -9 9 -9 8 0 12 4 9 9 -3 4 -7 8 -9 8 -2 0 -6 -4
-9 -8z"/>
<path d="M40 700 c-9 -6 -10 -10 -3 -10 6 0 15 5 18 10 8 12 4 12 -15 0z"/>
<path d="M2049 638 c0 -2 -2 -11 -4 -21 -3 -15 -1 -16 11 -6 7 6 11 15 8 20
-5 9 -13 12 -15 7z"/>
<path d="M1495 460 c-8 -13 5 -13 25 0 13 8 13 10 -2 10 -9 0 -20 -4 -23 -10z"/>
<path d="M1517 435 c-8 -8 -17 -12 -21 -10 -3 3 -4 2 -1 -2 3 -4 13 -8 21 -9
9 -1 13 0 10 3 -3 4 -1 12 5 20 15 18 4 17 -14 -2z"/>
<path d="M1174 361 c3 -5 -1 -11 -9 -15 -8 -3 -15 -10 -15 -16 0 -5 9 -2 20 7
22 19 26 33 9 33 -5 0 -8 -4 -5 -9z"/>
<path d="M170 341 c0 -5 7 -11 15 -15 8 -3 15 -1 15 3 0 5 -7 11 -15 15 -8 3
-15 1 -15 -3z"/>
<path d="M917 189 c7 -7 15 -10 18 -7 3 3 -2 9 -12 12 -14 6 -15 5 -6 -5z"/>
<path d="M955 191 c-3 -5 -2 -12 3 -15 5 -3 9 1 9 9 0 17 -3 19 -12 6z"/>
<path d="M405 119 c-3 -4 15 -6 40 -4 37 2 43 0 34 -11 -6 -7 -24 -11 -41 -9
-17 2 -27 1 -24 -2 14 -14 52 -9 75 8 13 11 19 20 12 21 -36 5 -93 3 -96 -3z"/>
<path d="M525 120 c-3 -6 1 -7 9 -4 18 7 21 14 7 14 -6 0 -13 -4 -16 -10z"/>
<path d="M535 101 c-3 -5 0 -13 6 -17 7 -4 9 -3 5 4 -3 5 0 13 6 15 9 4 10 6
1 6 -6 1 -14 -3 -18 -8z"/>
</g>
</svg>
